<svg id="Layer_1" data-name="Layer 1" xmlns="http://www.w3.org/2000/svg" width="247.68" height="361.36" viewBox="0 0 247.68 361.36">
  <defs>
    <style>
      .cls-1 {
        fill: #e43b44;
      }
    </style>
  </defs>
  <title>location-pin</title>
  <path class="cls-1" d="M122.72,361.36c-12.73-18.67-25.27-36.31-37-54.46-28.2-43.54-53.46-88.64-70.8-137.76C5.82,143.43-.71,117.19.06,89.6,1.2,49.26,21.43,21.75,59.81,9.05,86.32.27,113.69-1,141.3.59,161,1.73,180.35,4.91,198.54,13c30.41,13.58,46.3,37.38,48.74,70.33,2.33,31.63-5.82,61.44-16.62,90.63-17.48,47.25-42.15,90.8-69.61,132.81-11,16.86-22.91,33.14-34.43,49.67C125.7,357.81,124.6,359,122.72,361.36ZM123.56,164a50.5,50.5,0,1,0-50.33-50.79A50.54,50.54,0,0,0,123.56,164Z"/>
</svg>
