<svg id="message_Image" data-name="message Image" xmlns="http://www.w3.org/2000/svg" width="130.58" height="109.54" viewBox="0 0 130.58 109.54">
  <defs>
    <style>
      .cls-1 {
        fill: #63c74d;
      }
    </style>
  </defs>
  <title>message</title>
  <path class="cls-1" d="M107.42,20.71c-.77-1.19-2-1-3.85.12-5,3-9.79,6.23-14.7,9.33-6.3,4-12.64,7.9-18.94,11.88Q57.59,49.81,45.26,57.62c-3.22,2-6.41,4.11-9.65,6.1a2.31,2.31,0,0,1-1.65.2Q19.11,59.36,4.3,54.7a10.17,10.17,0,0,1-2.65-1.34c-1.94-1.32-2.26-3.42-.48-5a19,19,0,0,1,5.25-3.2c11.11-4.4,22.27-8.66,33.42-13L121.93.58c5-1.93,9.18,1.13,8.6,6.55a102.59,102.59,0,0,1-1.95,10.21q-4,18.84-8,37.67L113,90.77c-.91,4.25-1.77,8.5-2.73,12.73-1.56,6.84-6.6,7.38-11.26,4-7.87-5.61-15.57-11.45-23.33-17.19-1.8-1.33-3.6-2.66-5.41-4Q61,79.63,51.61,72.9c-.7-.5-.75-.9-.09-1.49q4.45-3.93,8.87-7.9l5.2-4.72q6-5.37,11.93-10.74c2-1.83,4-3.72,6-5.55,3.71-3.34,7.45-6.65,11.17-10,1.71-1.53,3.42-3.08,5.11-4.63q3.51-3.24,7-6.5A7.35,7.35,0,0,0,107.42,20.71Z"/>
</svg>
